<svg xmlns="http://www.w3.org/2000/svg" xmlns:xlink="http://www.w3.org/1999/xlink" data-name="Layer 1" width="1137.12" height="824.59" viewBox="0 0 1137.12 824.59"><defs><linearGradient id="38e3d8fd-16c6-494d-bdf0-b7b543d88498-307" x1="796.55" y1="851.63" x2="796.55" y2="242.46" gradientUnits="userSpaceOnUse"><stop offset="0" stop-color="gray" stop-opacity="0.25"/><stop offset="0.54" stop-color="gray" stop-opacity="0.12"/><stop offset="1" stop-color="gray" stop-opacity="0.1"/></linearGradient></defs><title>running wild</title><path d="M1138.21,223.38c-45.43-72.74-122-123.89-204.79-136.89C858.71,74.77,780,94.28,718.11,139l13.64-10.77C683,160.08,619.67,158,564.21,141.42S457.81,95.27,403.76,74.27A551.27,551.27,0,0,0,262.81,40C193.94,32.6,117,41.56,69.05,93.13c-53.43,57.43-49.33,161,8.47,213.74,29.39,26.82,67.89,40,101.46,60.91s64.65,55.71,61.79,96.12C238.12,501.31,207.35,530,175.51,548c-24.62,13.93-54.93,29.13-57.9,58-2.87,27.9,22.62,49.76,47,62.2,79.4,40.55,177.22,40.16,256.32-1,28.22-14.69,54.16-34.24,83.75-45.69,77.7-30.07,163.32.2,245.6,11.27a524.39,524.39,0,0,0,208.88-14.2c40.75-11.24,81.65-28.42,110.27-60.42C1090,535,1102.89,505.83,1115,477q19.32-46.14,37.13-92.93c7.12-18.73,14.14-37.82,16-57.85C1171.41,289.9,1157.35,254,1138.21,223.38Zm-800.47,5.13H264.9a7.56,7.56,0,0,1,0-15.12h25a7.53,7.53,0,0,1,2.94-10.68h-8.19a7.56,7.56,0,0,1,0-15.12h72.83A7.56,7.56,0,0,1,361,201.86h8.2a7.56,7.56,0,1,1,0,15.12h-25a7.46,7.46,0,0,1,1.15,4A7.58,7.58,0,0,1,337.74,228.51ZM457.82,336.34h-25a7.54,7.54,0,0,1-6.41,11.54H353.58a7.56,7.56,0,0,1,0-15.12h25a7.53,7.53,0,0,1,2.95-10.68h-8.2a7.56,7.56,0,1,1,0-15.12h72.83a7.55,7.55,0,0,1,3.48,14.26h8.19a7.56,7.56,0,1,1,0,15.12ZM567.46,255.4l1.18,1.84a17.39,17.39,0,0,1-7.4-.74,19.17,19.17,0,0,1-10.09-3.83l6.39-1.07c-.08-1.91.61-4.44,2.51-7.8l4.26,6.67,11.42-1.9A19.9,19.9,0,0,1,567.46,255.4Zm168.25,76.84,1.18,1.84a17.57,17.57,0,0,1-7.4-.74,19.17,19.17,0,0,1-10.09-3.83l6.39-1.07c-.08-1.91.61-4.44,2.51-7.8l4.26,6.67,11.42-1.9A19.9,19.9,0,0,1,735.71,332.24ZM868.34,269l1.18,1.84a17.39,17.39,0,0,1-7.4-.74A19.17,19.17,0,0,1,852,266.22l6.39-1.07c-.08-1.91.61-4.44,2.51-7.8l4.26,6.67,11.41-1.9A19.84,19.84,0,0,1,868.34,269ZM958,189.69H933a7.54,7.54,0,0,1-6.41,11.54H853.78a7.56,7.56,0,1,1,0-15.12h25a7.53,7.53,0,0,1,3-10.68h-8.2a7.56,7.56,0,1,1,0-15.12h72.83a7.55,7.55,0,0,1,3.48,14.26H958a7.56,7.56,0,1,1,0,15.12Z" transform="translate(-31.44 -37.71)" fill="#6c63ff" opacity="0.1"/><ellipse cx="623.39" cy="806.55" rx="57.73" ry="18.04" fill="#6c63ff" opacity="0.1"/><ellipse cx="711.45" cy="694.9" rx="31.08" ry="9.71" fill="#6c63ff" opacity="0.1"/><ellipse cx="872.1" cy="722.1" rx="31.08" ry="9.71" fill="#6c63ff" opacity="0.1"/><ellipse cx="934.01" cy="795.89" rx="57.73" ry="18.04" fill="#6c63ff" opacity="0.1"/><path d="M1117.44,361.53c-4.36-8.6-10.24,13.76-10.24,16.41,0,1.14-1.3,2.44-2.79,3.55-.25.19-.5.37-.76.54a4.45,4.45,0,0,0-2.13-2c-5.12-1.43-12.79,6.88-12.79,6.88s-13.93,5.45-22.17,6.88-15.34,7.17-15.34,7.17-13.36,4.88-18.19,2.3c-3.06-1.64-12.28-2.58-19.71-3.13-.08-.16-.15-.32-.22-.48a42.93,42.93,0,0,0-7.2-10.53c-2.51-2.69-5.44-5.17-6.82-8.58-.12-.3-.22-.6-.32-.91,5.16-4.72,10.53-10.89,10.63-16.23.11-6-8.82-7.12-16.26-7-1.9,0-3.77,0-5.45.13a21.47,21.47,0,0,0-3.9-4.51l-.2-1.33-2.52-16.54A29.57,29.57,0,0,0,953,319.87s-22,2.48-23.48,12.23A153.49,153.49,0,0,1,926.08,348c-.15.51-.27.92-.36,1.24-2.08.57-3.61,1-4.4,1.28-7.7.81-17.05,3.48-17.61,11.63s0,15,4.51,19.8c.75,1.44,1.54,2.86,2.15,4.36a19.65,19.65,0,0,1-2.06,18.3c-3.1,4.42-7.89,7.31-11.64,11.18a21,21,0,0,0-5.83,11.85l-.48.07a51.56,51.56,0,0,0-6,13.47c-1.71,6.88-15.06,21.22-15.06,21.22S856.54,478.7,851.14,481s-7.39,4.3-7.39,4.3l-2.85,2s-2.27,3.44-4.54,4.87-33,24.95-33,24.95-14.49,5.44-16.48,9.74c-.51,1.09.21,3,1.56,5.17l-1.37.73c-3.7,2-8.27,4.34-12.08,6a1.62,1.62,0,0,0,0-.18s-2.29-4.91-4.17-9.45c-.33-.81-.66-1.61-1-2.37,1.78.14,2.9.26,2.9.26s-.76-7.65,1.52-8-1.65-6.5-1.65-6.5l-1-5.73s2.28-14.15,0-17.21-4.92-11.46-4.92-11.46,2.27-7.27,0-9.56-3.41-9.18-3.41-9.18-1.9-14.52-6.82-23.7-13.27-26.76-13.27-26.76l-6.44-21h0s-19.32-35.56-38.27-47.78-46-14-46-14c-.09-.23-.19-.45-.28-.68a48.82,48.82,0,0,1-1.84-5.65c-.08-.32-.14-.64-.21-1a36.56,36.56,0,0,0,7.16-47.22c-.28-.44-.57-.86-.87-1.28a13.44,13.44,0,0,0,7-10.19c.6-5.26-6-9.82-9.89-12.54-.39-.28-.8-.55-1.21-.8l-.52-.32-.7-.4c-.22-.12-.45-.25-.69-.36l-.53-.27a18.19,18.19,0,0,0-8.47-2c-3.65.12-7.15,1.56-10.79,1.78-8.1.5-16.44-5-23.95-1.87-5.52,2.28-9.08,8.76-15,9.39-1.66.18-3.33-.15-5-.06a4.93,4.93,0,0,0-4.25,2.2c-.66,1.25-.44,2.77-.27,4.18A39.58,39.58,0,0,1,580,277.29c-5.65-2.09-23.23,5.58-24.45,9-.93,2.64-7.51,10.23-11.91,15.13l-1.12,1.24a3.53,3.53,0,0,1,.24-1.56l-11,6.88s-11.36,2.27-15.53,11.84S500,331.72,500,331.72l-7.57,12.61s-18.95,8-20.09,32.11S486.69,399,486.69,399h0c6.43,1.91,37.12,0,37.12,0s24.26-16.06,26.15-4.21,9.48,51.6,15.17,55.81,8.33,18.73,8.33,18.73-11,22.56-2.65,34.79a133.52,133.52,0,0,1,13.25,25.61l1.21.31-.77,2.09-4.6,12.32s9.85,6.3,9.47,9.37-2.65,15.67-2.65,15.67,9.1,17.58,7.58,20.64.17,8.79.17,8.79,6.27,38.23,11.19,48.17a61.16,61.16,0,0,1,5.63,20.64s-4.1,9.17-1.83,12.23,1.83,8.41,1.83,8.41-.36,6.5,0,8.42,1.16,8.78,2.29,9.93,1.53,32.88,17,65v7.65s-3.41,4.2,0,8c1,1.08,4.6.93,9.27.15.35.67.7,1.38,1.07,2.12a68.07,68.07,0,0,1,5.35,14c.09.35.16.7.23,1.05-2.16,1-3.77,2.5-3.22,4.83,1.42,6-4.54,22.94-4.54,22.94s-6.26,9.46-2.28,13.76,38.65,7.46,40.07,3.73-4-27-4-27l-5.13-17.39-.3-1.32c-1.08-4.7-2.94-13-4.4-20.09-.15-.74-.29-1.46-.44-2.17,4.54-1.31,7.71-2.32,7.71-2.32s-6.82-9.18-5.31-13-4.16-66.9-4.16-66.9S658,692.2,659.49,688s-4.93-10.7-4.93-10.7l2.66-70.72s17.43,56.19,37.51,69.58c0,0,25.39,3.05,30.7-6.51.28-.5.54-1,.79-1.6.24.31.47.62.68.94a28.58,28.58,0,0,1,2.08,3.6q.42.84.75,1.65h0s5.73,16.62,7.06,23.79,15.44-5.45,19.71-8,1.7-20.35-4.27-25.8c-3-2.69-3.74-7.42-4.59-12.92l-.22-3s-.1-.13-.3-.35c-.78-4.77-1.88-9.9-4.55-14.71-3-5.3-7.9-6.4-12.45-6a8.92,8.92,0,0,0-7.79,6.44l-.41.2a16.64,16.64,0,0,0-2.94.24s0-9.55-1.9-14.53.76-19.49.76-19.49.77-3.82-1.51-11.08-1.13-48.17-1.13-48.17a91.22,91.22,0,0,0-2.64-8.89c-.12-.33-.25-.66-.38-1a1.83,1.83,0,0,0,.36-.82c.38-3.44-4.93-15.29,1.89-19.11s-3-20.64-3-20.64l-2.28-50.46s-7.44-13.6-6.39-16.63l11.7,14.33s8,15.3,8.34,17.59,1.9,8,4.17,7.26,3.41,10.71,3.41,10.71,6.06,13,4.93,17.58,1.51,8.79,1.51,8.79,6.06,10.32,5.31,14.15,3.35,15.13,3.4,15.28h0s.15.63.36,1.67c.68,3.29,2,10.62,1.59,13.82-.62,4.2-2.61,33.73,12.74,27.43a16.87,16.87,0,0,0,4.94-3.15,4.86,4.86,0,0,0,2.54,1.14c7.24,1,22.67-15.16,30.34-23.8l1.07-1.21c1.7,1.78,2.89,2.93,2.89,2.93l8-4S859.38,524,864.21,515.4s33.08-27.24,33.08-27.24,4.43,21.5,1.31,24.66c-3,3-12.39,23.14-10.82,29.53a3.23,3.23,0,0,0,.3.86c-4.54,3.15,0,43.58,0,43.58S889.5,605.42,887,618a30.25,30.25,0,0,0-.08,9.62c1,8.37,4.26,17.57,5.59,23.42.53,2.3.76,4.09.45,5.09-1.42,4.59,2,20.07,5.4,22.36s1.14,12,1.14,12-2.56,14.62,0,18.92a21,21,0,0,1,1.3,2.6l-.67.85c-4.71,6-12,17.51-9.25,28,4,15.09,13.65,23.32,20.84,14.52S918.3,731,918.3,731s0-3,.18-6.56c0-.75.11-1.52.18-2.3a14.61,14.61,0,0,0,2.11,0c6-.57,6.82-4.3,12.5-6.59s10.8-12,10.8-12l.29-31s2.84,29,4.54,36.12-2,37.28-2,37.28l-2.84,27-1.42,9.74c.74,1.81,2.93,3.16,5.89,4.16-.15.66-.3,1.37-.47,2.14-1.15,5.4-2.63,13.1-2.86,17.59-.38,7.46,5.88,29.06,7.19,29.25s37.14,10.32,33-2.68-10.8-14.14-9.84-19.11c.62-3.29-.41-14.74-1.19-22.08-.08-.83-.17-1.59-.24-2.29,3.46,0,5.78-.09,5.78-.09l-.57-11.19s11.09-43.29,10-51.6S993,700,993,700s4.27-35.83,4-41.72,5.12-26.8,5.12-26.8a387.87,387.87,0,0,0,10-44.15c3.69-23.22-6.26-46.45-6.26-46.45s-.09-.41-.22-1.13c-1-5.13-4.74-26.14.22-34.42,5.69-9.46,7.39-28.95,7.39-28.95s14.5-22.37,13.08-28.1c0,0,46.61-15.2,49.45-20.07s22.73-15.17,22.73-15.17l13.65-4.33s-.62-3.09-1.63-7.24l.94-.78c3.27-2.72,7.13-5.74,8.17-5.74C1121.41,395,1121.79,370.13,1117.44,361.53ZM565.51,330.94h-9.09s-2,1-4.91,2.68c-.86.48-1.78,1-2.75,1.61,1.18-4,2.35-7.81,2.35-7.81l7.2-7.57s-.88-.6-2.21-1.62c.52-.24,1.08-.5,1.67-.74a14.86,14.86,0,0,1,5.18-1.35c3.7,0,11.94-13.48,11.94-13.48a124,124,0,0,0,4.71-11.77,14.61,14.61,0,0,0,1.75,1.77,6.09,6.09,0,0,0,1.67,2.67c1.51,1.42,3.49,2.5,4.26,4.43,1.19,2.94-1,6.63.62,9.37a7.5,7.5,0,0,0,2.81,2.42c2.65,1.58,5.36,3.05,8.1,4.47h0l2.15,1.12v.27c-.05,2.94-.19,6.09-.48,9.28,0,.33-.07.66-.1,1h0s-18.58-8.19-22.36-4.75-10.61,2.67-10.61,2.67S568.92,330.94,565.51,330.94Z" transform="translate(-31.44 -37.71)" fill="url(#38e3d8fd-16c6-494d-bdf0-b7b543d88498-307)"/><path d="M668.2,356.26l-41.29,24.25s-49.66-12.88-36-23.88c6.08-4.89,8.63-15.34,9.57-25.44.29-3.16.43-6.29.48-9.2a142.63,142.63,0,0,0-.58-15.38s57.59-9.84,50.39,4.94c-1.75,3.59-1.61,8.07-.42,12.81a47.5,47.5,0,0,0,1.84,5.6C657.4,343.13,668.2,356.26,668.2,356.26Z" transform="translate(-31.44 -37.71)" fill="#ffccd0"/><path d="M650.77,311.55c-1.75,3.59-1.61,8.07-.42,12.81a35.8,35.8,0,0,1-23.44,8.7c-9.47,0-13.1-8.06-19.53-14-.5-.47-3.58.81-4,.32.14-8.65-3-12.74-3-12.74S658,296.77,650.77,311.55Z" transform="translate(-31.44 -37.71)" opacity="0.1"/><path d="M662.91,295.92a36,36,0,1,1-5.61-19.32A36,36,0,0,1,662.91,295.92Z" transform="translate(-31.44 -37.71)" fill="#ffccd0"/><path d="M657.3,276.6a10,10,0,0,1-2,.74c-2.84.72-5.81.41-8.72.13a2.11,2.11,0,0,0-1.36.17c-.51.33-.64,1-.83,1.6-.79,2.33-3.2,3.69-5.52,4.49a24.77,24.77,0,0,1-14.66.37,5,5,0,0,0-2-.31c-1.57.19-2.5,1.88-2.75,3.44s-.1,3.22-.69,4.67c-1,2.54-3.86,3.7-6.34,4.82s-5.21,2.91-5.33,5.64c-.08,1.57.75,3,1,4.56a7,7,0,0,1-3.41,7,64.53,64.53,0,0,1-2.25,8.34A36,36,0,1,1,657.3,276.6Z" transform="translate(-31.44 -37.71)" opacity="0.1"/><path d="M653.57,252.8a20.46,20.46,0,0,0-12.12-4.07c-3.65.12-7.15,1.54-10.79,1.76-8.1.5-16.44-4.92-23.95-1.85-5.52,2.26-9.08,8.68-15,9.31-1.66.17-3.33-.15-5-.07s-3.46.71-4.25,2.18a7,7,0,0,0-.27,4.15,38.76,38.76,0,0,1-2.43,18.73c-1.13,2.85-2.63,5.81-2.1,8.83a10,10,0,0,0,3.7,5.69,6.08,6.08,0,0,0,1.67,2.65c1.51,1.4,3.49,2.47,4.26,4.38,1.19,2.93-1,6.58.62,9.3a7.43,7.43,0,0,0,2.81,2.39q5.07,3,10.36,5.6a69.11,69.11,0,0,0,2.45-9,7,7,0,0,0,3.41-7c-.28-1.54-1.11-3-1-4.56.13-2.73,2.84-4.53,5.33-5.65s5.33-2.28,6.35-4.81c.59-1.46.43-3.11.68-4.67s1.18-3.26,2.75-3.45a5,5,0,0,1,2,.32,24.85,24.85,0,0,0,14.66-.38c2.33-.79,4.74-2.16,5.52-4.49.19-.59.32-1.27.84-1.6a2.07,2.07,0,0,1,1.35-.17c2.91.28,5.89.58,8.72-.12a13.08,13.08,0,0,0,9.35-11C664.06,260,657.44,255.5,653.57,252.8Z" transform="translate(-31.44 -37.71)" fill="#e3787d"/><path d="M653.57,252.8a25.9,25.9,0,0,0-4.45-2.5c.74.42,1.48.87,2.18,1.36,3.87,2.7,10.49,7.22,9.88,12.43a13.06,13.06,0,0,1-9.34,11c-2.84.71-5.81.4-8.72.12a2.17,2.17,0,0,0-1.36.17c-.52.33-.64,1-.84,1.6-.77,2.34-3.18,3.7-5.51,4.49a24.72,24.72,0,0,1-14.67.38,5.09,5.09,0,0,0-2-.32c-1.57.19-2.5,1.89-2.75,3.45s-.09,3.21-.68,4.67c-1,2.53-3.87,3.7-6.36,4.82s-5.19,2.91-5.32,5.64c-.08,1.56.74,3,1,4.56a7,7,0,0,1-3.41,7,70.57,70.57,0,0,1-2.44,8.93c.76.39,1.5.8,2.26,1.17a69.11,69.11,0,0,0,2.45-9,7,7,0,0,0,3.41-7c-.28-1.54-1.11-3-1-4.56.13-2.73,2.84-4.53,5.33-5.65s5.33-2.28,6.35-4.81c.59-1.46.43-3.11.68-4.67s1.18-3.26,2.75-3.45a5,5,0,0,1,2,.32,24.85,24.85,0,0,0,14.66-.38c2.33-.79,4.74-2.16,5.52-4.49.19-.59.32-1.27.84-1.6a2.07,2.07,0,0,1,1.35-.17c2.91.28,5.89.58,8.72-.12a13.08,13.08,0,0,0,9.35-11C664.06,260,657.44,255.5,653.57,252.8Z" transform="translate(-31.44 -37.71)" opacity="0.1"/><path d="M574.89,307.37s-8.24,13.36-11.94,13.36a15.05,15.05,0,0,0-5.18,1.34,40.6,40.6,0,0,0-4.76,2.35L539.65,310.5s1.7-1.8,4-4.33c4.4-4.85,11-12.38,11.91-15,1.42-4,25-13.65,26.15-7.11S574.89,307.37,574.89,307.37Z" transform="translate(-31.44 -37.71)" fill="#ffccd0"/><path d="M802.54,543.46s-1.76,2.11-4.53,5.2c-7.67,8.56-23.1,24.57-30.34,23.59-9.84-1.33-4.55-27.47,1.33-28.61,3.57-.69,12-4.93,18.1-8.17,4-2.1,6.91-3.77,6.91-3.77Z" transform="translate(-31.44 -37.71)" fill="#ce828d"/><path d="M760.19,574.24c-15.35,6.26-13.36-23-12.74-27.19.46-3.17-.91-10.44-1.59-13.7-.21-1-.36-1.65-.36-1.65l3.89-9.84s19,.37,19,2.93c0,1.05,1.11,4,2.41,7.12,1.88,4.5,4.17,9.37,4.17,9.37S775.54,568,760.19,574.24Z" transform="translate(-31.44 -37.71)" fill="#ffccd0"/><path d="M668.11,808.43s-23.59,13.07-21.32,3.41a17.61,17.61,0,0,0-.42-7.82,67.34,67.34,0,0,0-5.35-13.9c-2.33-4.7-4.46-8.12-4.46-8.12s23.87-15.07,24.16-9.38a119.69,119.69,0,0,0,2.11,12.13c1.46,7.06,3.32,15.25,4.4,19.91Z" transform="translate(-31.44 -37.71)" fill="#ff748e"/><path d="M668.11,808.43s-23.59,13.07-21.32,3.41a17.61,17.61,0,0,0-.42-7.82,26.46,26.46,0,0,1,8.45-1.85c3.11-2.28,10.82,1.63,12.41,2.49Z" transform="translate(-31.44 -37.71)" opacity="0.1"/><path d="M654.82,803.31s-12.86.57-11.44,6.54-4.54,22.73-4.54,22.73-6.26,9.38-2.28,13.65,38.65,7.39,40.07,3.69-4-26.71-4-26.71L667.53,806S658.3,800.75,654.82,803.31Z" transform="translate(-31.44 -37.71)" fill="#4d507f"/><path d="M749.39,676.37l-17.72,5a38,38,0,0,0-2.69-7.32,28.26,28.26,0,0,0-2.08-3.57c-2.81-4.06-7-7.3-12.94-5.48-13,4,0-25.72,0-25.72s3.52-1.5,7.07-3.18l.83-.41c2.87-1.41,5.6-2.89,6.27-3.75,1.28-1.62,13.1,11.16,17.59,16.12,1.06,1.17,1.7,1.91,1.7,1.91l.83,11.15Z" transform="translate(-31.44 -37.71)" fill="#ff748e"/><path d="M749.39,676.37l-17.72,5a38,38,0,0,0-2.69-7.32c.72-2.37,2.65-6.36,7.34-5.76,5.4.7,4.64-18.18-2.94-22.73s-12.13-4.83-12.13-4.83a8.83,8.83,0,0,1-.22-4.63l.83-.41c2.87-1.41,5.6-2.89,6.27-3.75,1.28-1.62,13.1,11.16,17.59,16.12.89,4.9,1.28,9.51,2.53,13.06Z" transform="translate(-31.44 -37.71)" opacity="0.1"/><path d="M722.39,640.75a8.93,8.93,0,0,1,7.73-11.65c4.55-.39,9.5.71,12.45,6,6.54,11.66,3.69,25.31,9.66,30.71s8.53,23,4.27,25.57-18.38,15.06-19.71,7.95-7.06-23.58-7.06-23.58,1.14-8.25,7.72-7.4c5.41.7,4.65-18.18-2.93-22.73s-12.13-4.83-12.13-4.83Z" transform="translate(-31.44 -37.71)" fill="#4d507f"/><path d="M662.83,784.75c-6.1,1.76-14.92,4.15-21.81,5.37-2.33-4.7-4.46-8.12-4.46-8.12s23.87-15.07,24.16-9.38A119.69,119.69,0,0,0,662.83,784.75Z" transform="translate(-31.44 -37.71)" opacity="0.1"/><path d="M726.9,670.5c-2.81-4.06-7-7.3-12.94-5.48-13,4,0-25.72,0-25.72s4.09-1.74,7.9-3.59c2.35-.16,6.42.08,7.73,3.24C731.44,643.4,731.84,660.87,726.9,670.5Z" transform="translate(-31.44 -37.71)" opacity="0.1"/><path d="M725.43,671.16c-5.31,9.47-30.7,6.44-30.7,6.44-20.08-13.26-37.51-69-37.51-69l-2.66,70.11s6.44,6.43,4.93,10.61,1.14,11.74,1.14,11.74,5.68,62.52,4.16,66.32,5.31,12.88,5.31,12.88-36,11.37-39.42,7.58,0-8,0-8v-7.59c-15.52-31.83-15.91-63.28-17-64.42s-1.89-8-2.29-9.84,0-8.35,0-8.35.44-5.3-1.83-8.33,1.83-12.13,1.83-12.13a60.18,60.18,0,0,0-5.63-20.46c-4.92-9.85-11.19-47.75-11.19-47.75s-1.69-5.69-.17-8.71-7.58-20.46-7.58-20.46,2.28-12.51,2.65-15.54-9.47-9.29-9.47-9.29l4.6-12.21,4.87-13s112.92,2.27,117.47,3.78c2.2.73,4.21,4.89,5.71,9a88.91,88.91,0,0,1,2.64,8.81s-1.14,40.54,1.13,47.74,1.51,11,1.51,11-2.64,14.4-.76,19.32,1.9,14.41,1.9,14.41,7.58-1.52,9.47,3S730.72,661.69,725.43,671.16Z" transform="translate(-31.44 -37.71)" fill="#aacaf5"/><path d="M952.4,835.8c-1.31-.18-7.57-21.6-7.19-29,.23-4.45,1.71-12.08,2.86-17.44.76-3.51,1.37-6,1.37-6L973.63,786s.32,2.64.71,6.34c.78,7.27,1.81,18.62,1.19,21.88-1,4.94,5.68,6.07,9.84,18.95S953.73,836,952.4,835.8Z" transform="translate(-31.44 -37.71)" fill="#4d507f"/><path d="M920.57,714.73c-1.29,2.1-1.85,6.79-2.09,10.74-.23,3.55-.18,6.51-.18,6.51s.57,15.54-6.63,24.24-16.86.57-20.84-14.39c-2.76-10.4,4.54-21.78,9.25-27.76,2.07-2.62,3.63-4.2,3.63-4.2S923,710.75,920.57,714.73Z" transform="translate(-31.44 -37.71)" fill="#4d507f"/><path d="M931.46,354.55s-26.8-2.08-27.75,11.75,1.41,24.48,21.93,26.17,13.12-37.65,13.12-37.65Z" transform="translate(-31.44 -37.71)" fill="#575a89"/><path d="M981.06,361.49s26.29-4.1,26.1,6.14-20.07,23.55-20.07,23.55Z" transform="translate(-31.44 -37.71)" fill="#575a89"/><path d="M932.45,354.55s-26.79-2.08-27.74,11.75,1.4,24.48,21.92,26.17,13.13-37.65,13.13-37.65Z" transform="translate(-31.44 -37.71)" opacity="0.15"/><path d="M983.29,361.49s26.29-4.1,26.1,6.14-20.08,23.55-20.08,23.55Z" transform="translate(-31.44 -37.71)" opacity="0.15"/><path d="M939,350.63a87.16,87.16,0,0,0-20.57,11.73,4.42,4.42,0,0,0-1.89,2.37,13.68,13.68,0,0,0,.05,2.39c-.16,4-6.21,4.34-8.93,7.31-1.93,2.1-1.9,5.4-1,8.1s2.61,5.08,3.69,7.72a19.33,19.33,0,0,1-2.06,18.14c-3.1,4.39-7.89,7.25-11.64,11.09-5,5.17-8.07,13.58-4.09,19.62,2.43,3.7,6.88,5.63,9.48,9.2,2.8,3.87,3,9.06,2.33,13.79s-2.1,9.38-2.14,14.16c-.09,9.34,5.33,18.2,12.88,23.71s17,8,26.31,8.5c3.31.19,6.75.13,9.76-1.25s5.37-4,7.43-6.66a87,87,0,0,0,14.09-26.64c1.35-4.17,2.47-8.6,5.37-11.88a26.79,26.79,0,0,1,7.3-5.22l13.32-7.46c4.37-2.45,9.16-5.43,10.31-10.3,1.3-5.52-2.54-11.94.58-16.68,1-1.54,2.64-2.59,3.79-4,3.23-4.08,2-10.1-.29-14.77a42.68,42.68,0,0,0-7.2-10.45c-2.51-2.66-5.44-5.11-6.82-8.5-1.06-2.6-1.1-5.53-2.05-8.17-2-5.5-7.42-8.85-11.06-13.42-3-3.79-4.83-8.5-8.34-11.81-5.69-5.38-12-3.66-19-3.45-3.46.11-6.68-1.17-10.09-1.23C944.52,346.46,942.77,349.12,939,350.63Z" transform="translate(-31.44 -37.71)" fill="#663d5c"/><path d="M984.37,360.21l-58.86-6s.21-.7.57-2a151.32,151.32,0,0,0,3.41-15.72C931,326.89,953,324.43,953,324.43a29.62,29.62,0,0,1,28.09,14.21L983.58,355Z" transform="translate(-31.44 -37.71)" fill="#ff748e"/><path d="M995.51,423.9l-9.09,23.3-38.37,6.54s-44.9-9.66-24.16-29.84a65.89,65.89,0,0,0,6.68-7.47,33.34,33.34,0,0,0,4.83-8.61c3.32-9.26-1.84-13.76-1.84-13.76s37.79-17.34,38.36,2.27a24.39,24.39,0,0,0,3.82,12.43,31.38,31.38,0,0,0,4.63,5.65A46,46,0,0,0,995.51,423.9Z" transform="translate(-31.44 -37.71)" fill="#ce828d"/><path d="M1119.52,398.89c-1,0-4.9,3-8.17,5.68-2.66,2.19-4.91,4.17-4.91,4.17l-6.25-20.65a33.5,33.5,0,0,0,4.22-2.57c1.49-1.1,2.79-2.4,2.79-3.52,0-2.63,5.88-24.8,10.24-16.27S1121.41,398.89,1119.52,398.89Z" transform="translate(-31.44 -37.71)" fill="#ce828d"/><path d="M668.2,356.26l-41.29,24.25s-49.66-12.88-36-23.88c6.08-4.89,8.63-15.34,9.57-25.44,8.28,14.13,21.86,15,28.07,14.51,1.87-.13,3.75-.12,5.62-.17,8.6-.24,16.5-12.95,18-15.57C657.4,343.13,668.2,356.26,668.2,356.26Z" transform="translate(-31.44 -37.71)" opacity="0.1"/><path d="M712.56,534.65c0,.17,0,.33,0,.46-.38,3.41-16.3,9.1-16.3,9.1s-73.13,9.09-79.57,3c-6-5.6-28.74-11.52-32.16-12.4l4.87-13s112.92,2.27,117.47,3.78C709.05,526.37,711.06,530.53,712.56,534.65Z" transform="translate(-31.44 -37.71)" opacity="0.1"/><path d="M711.4,493.44s9.85,16.66,3,20.46-1.51,15.53-1.89,18.94-16.3,9.09-16.3,9.09-73.13,9.1-79.57,3-32.6-12.51-32.6-12.51a131.85,131.85,0,0,0-13.25-25.38c-8.34-12.13,2.65-34.49,2.65-34.49s-2.65-14.39-8.33-18.57S551.87,410.45,550,398.7s-26.15,4.17-26.15,4.17-30.69,1.9-37.12,0a1.2,1.2,0,0,1-.36-.17c-4.78-3.23,25.36-38.11,25.36-38.11s22.74-4.16,22.35-11c-.26-4.78,10.79-11.78,17.45-15.55,2.87-1.63,4.92-2.65,4.92-2.65h9.09c3.41,0,1.9-5.3,1.9-5.3s6.82.76,10.61-2.65,22.36,4.71,22.36,4.71c8.27,14.28,21.94,15.12,28.17,14.66,1.87-.12,3.75-.11,5.62-.17,9.59-.26,18.3-16,18.3-16s27.1,1.75,46,13.88,38.27,47.36,38.27,47.36-28.42,35.25-33,34.5,5.29,17.05,5.29,17.05Z" transform="translate(-31.44 -37.71)" fill="#dce6f2"/><path d="M551.5,338.06c-1.06,3.57-2.27,7.71-2.67,9.48-.75,3.41-8.7,6.83-8.7,6.83s-7.59,10.22-6.83,12.12-6.44,9.09-9.48,15.91S489,402.87,489,402.87a11,11,0,0,1-2.63-.17c-4.78-3.23,25.36-38.11,25.36-38.11s22.74-4.16,22.35-11C533.79,348.83,544.84,341.83,551.5,338.06Z" transform="translate(-31.44 -37.71)" opacity="0.1"/><path d="M557.77,322.07a40.6,40.6,0,0,0-4.76,2.35L539.65,310.5s1.7-1.8,4-4.33C543.81,311.26,553.73,319.1,557.77,322.07Z" transform="translate(-31.44 -37.71)" opacity="0.1"/><path d="M542.77,305.86l-11,6.82s-11.37,2.25-15.54,11.73S500,336.17,500,336.17l-7.57,12.51s-18.95,8-20.09,31.83,14.4,22.36,14.4,22.36,31.83-13.64,34.86-20.47,10.24-14,9.48-15.91,6.82-12.12,6.82-12.12,8-3.42,8.71-6.83,4.55-15.62,4.55-15.62l7.2-7.51S540.12,311.92,542.77,305.86Z" transform="translate(-31.44 -37.71)" fill="#dce6f2"/><path d="M770.84,531.91c-5.72-.48-22.24-1.58-25,1.44-.21-1-.36-1.65-.36-1.65l3.89-9.84s19,.37,19,2.93C768.43,525.84,769.54,528.79,770.84,531.91Z" transform="translate(-31.44 -37.71)" opacity="0.1"/><path d="M722.77,380.51l14,11.37,6.44,20.84s8.34,17.43,13.27,26.53,6.82,23.49,6.82,23.49,1.13,6.82,3.41,9.09,0,9.48,0,9.48,2.65,8.33,4.92,11.37,0,17.05,0,17.05l1,5.68s3.92,6.07,1.65,6.44-1.52,8-1.52,8-26.15-2.65-27.28,1.9c0,0-4.17-11.37-3.41-15.16s-5.31-14-5.31-14-2.65-4.17-1.51-8.72-4.93-17.43-4.93-17.43-1.14-11.37-3.41-10.61-3.79-4.92-4.17-7.2-8.34-17.43-8.34-17.43l-15.91-19.33Z" transform="translate(-31.44 -37.71)" fill="#dce6f2"/><path d="M975.74,408.76a32.2,32.2,0,0,1-40.34-.94c3.32-9.26-1.84-13.76-1.84-13.76s37.79-17.34,38.36,2.27A24.39,24.39,0,0,0,975.74,408.76Z" transform="translate(-31.44 -37.71)" opacity="0.1"/><circle cx="924.71" cy="344.29" r="32.26" fill="#ce828d"/><path d="M995.51,423.9l-9.09,23.3-38.37,6.54s-44.9-9.66-24.16-29.84a65.89,65.89,0,0,0,6.68-7.47C940.39,441,957,438.68,957,438.68c23-4.35,23.73-19.72,23.41-24.27A46,46,0,0,0,995.51,423.9Z" transform="translate(-31.44 -37.71)" opacity="0.1"/><path d="M1111.35,404.57c-2.66,2.19-4.91,4.17-4.91,4.17l-6.25-20.65a33.5,33.5,0,0,0,4.22-2.57C1107.11,389,1109.71,397.93,1111.35,404.57Z" transform="translate(-31.44 -37.71)" opacity="0.1"/><path d="M802.54,543.46s-1.76,2.11-4.53,5.2c-3.24-3.33-8.4-8.94-10.91-13.19,4-2.1,6.91-3.77,6.91-3.77Z" transform="translate(-31.44 -37.71)" opacity="0.1"/><path d="M1112,412.53l-13.65,4.29s-19.89,10.21-22.73,15-49.45,19.89-49.45,19.89c1.42,5.68-13.08,27.85-13.08,27.85s-1.7,19.33-7.39,28.71c-5,8.21-1.24,29-.22,34.11.13.72.22,1.13.22,1.13s-114.82,7.39-117.66,2.27a3,3,0,0,1-.3-.85c-1.57-6.33,7.84-26.29,10.82-29.27,3.12-3.13-1.31-24.44-1.31-24.44s-28.25,18.47-33.08,27-54.28,28.14-54.28,28.14l-8,4s-17.05-16.48-15.06-20.75S803.39,520,803.39,520s30.69-23.3,33-24.73a19.8,19.8,0,0,0,4.54-4.83l2.85-2s2-2,7.39-4.26,18.19-18.47,18.19-18.47,13.35-14.21,15.06-21a50.83,50.83,0,0,1,6-13.36,35.81,35.81,0,0,0,17-7.68c8.47-6.77,22.67-6.79,22.86-6.79,9.78,25.31,26.69,23,26.69,23,27.1-5.11,23.27-25.55,23.27-25.55s19.26-11.11,23.52-10.82,24.45,1.13,29.28,3.69,18.19-2.27,18.19-2.27,7.1-5.69,15.34-7.11,22.17-6.82,22.17-6.82,7.67-8.24,12.79-6.82S1112,412.53,1112,412.53Z" transform="translate(-31.44 -37.71)" fill="#ff748e"/><path d="M1005.74,543.55s-114.82,7.39-117.66,2.27a3,3,0,0,1-.3-.85,2,2,0,0,1,.3-.28l18.48,1.79s8.37-13.73,11.85-21.69c0,0,12.3-21.6,12.3-28.7,0,0,54.85-1.14,63.1-5.12,0,0,1.53,49,6,51.81l5.69-.36C1005.65,543.14,1005.74,543.55,1005.74,543.55Z" transform="translate(-31.44 -37.71)" opacity="0.1"/><path d="M920.57,714.73c-1.29,2.1-1.85,6.79-2.09,10.74-6.33-.33-15.9-3.44-15.9-3.44a26.57,26.57,0,0,0-2.5-8c2.07-2.62,3.63-4.2,3.63-4.2S923,710.75,920.57,714.73Z" transform="translate(-31.44 -37.71)" opacity="0.1"/><path d="M974.34,792.32c-7,0-19.14-.4-26.27-3,.76-3.51,1.37-6,1.37-6L973.63,786S974,788.62,974.34,792.32Z" transform="translate(-31.44 -37.71)" opacity="0.1"/><path d="M1012,589.59a381.75,381.75,0,0,1-10,43.77s-5.4,20.73-5.12,26.56-4,41.36-4,41.36-4.83,18.19-3.69,26.43-10,51.16-10,51.16l.57,11.08s-33.82,1.43-37.23-6.82l1.42-9.66,2.84-26.71s3.7-29.85,2-37S944.36,674,944.36,674l-.29,30.69s-5.11,9.67-10.8,11.94-6.54,6-12.5,6.54-18.19-3.41-18.19-3.41a25.8,25.8,0,0,0-3.13-9.1c-2.56-4.26,0-18.76,0-18.76s2.27-9.66-1.14-11.93-6.82-17.62-5.4-22.17c.31-1,.08-2.76-.45-5-1.33-5.8-4.55-14.91-5.59-23.21A29.75,29.75,0,0,1,887,620c2.55-12.51,1.13-31,1.13-31s-4.54-40.07,0-43.2l18.48,1.8s8.37-13.73,11.85-21.69c0,0,12.3-21.6,12.3-28.71,0,0,54.85-1.13,63.1-5.11,0,0,1.53,49,6,51.8l5.91-.36S1015.69,566.57,1012,589.59Z" transform="translate(-31.44 -37.71)" fill="#575a89"/><path d="M985.11,696a6.91,6.91,0,0,1-.92,3c-1.69,3.71-5.36,9.37-7.44,10.57-3.41,2-18.75-5.4-19-8.1a18.82,18.82,0,0,1,.7-5.46c.36-1.5.72-2.64.72-2.64s21.32,4.84,25,2.56l.06,0C984.79,695.51,985.06,695.59,985.11,696Z" transform="translate(-31.44 -37.71)" fill="#ce828d"/><path d="M944.42,471.9c-.09,3.78,0,12.49,0,18.64,0,3.84.07,6.68.07,6.68H929.58s-.14-2.6-.29-6.68c-.17-4.71-.35-11.37-.32-18.27,0-1.75,0-3.51.06-5.27.1-5.1.35-10.08.83-14.25,1.84-16.21-13.74-34-13.74-34,3.59-4.26,13-2,13-2s5.28,15.17,9.39,26.4a118.7,118.7,0,0,1,5.72,23.06,21.49,21.49,0,0,1,.26,3.94C944.47,470.52,944.45,471.1,944.42,471.9Z" transform="translate(-31.44 -37.71)" opacity="0.1"/><path d="M945.56,471.9c-.09,3.78,0,12.49,0,18.64,0,3.84.07,6.68.07,6.68H930.71s-.13-2.6-.28-6.68c-.17-4.71-.35-11.37-.32-18.27,0-1.75,0-3.51.06-5.27.1-5.1.35-10.08.83-14.25,1.84-16.21-13.75-34-13.75-34,3.6-4.26,13-2,13-2s5.27,15.17,9.39,26.4a119.43,119.43,0,0,1,5.72,23.06,21.49,21.49,0,0,1,.26,3.94C945.61,470.52,945.58,471.1,945.56,471.9Z" transform="translate(-31.44 -37.71)" fill="#575a89"/><path d="M1007.3,461.85c-.27,1.37-.52,3.62-.78,6.25-.54,5.31-1.11,12.18-2,16.62-.5,2.42-1.11,4.1-1.86,4.41L999,490.54l-4.1,1.57-5.38.85,1-2.42c.64-1.51,1.51-3.6,2.42-5.82,2.08-5.06,4.34-10.85,4.49-12.37.07-.67.3-2.21.57-4.25.24-1.78.5-3.94.7-6.25.57-6.29.71-13.68-1.27-17.49-3.55-6.82-12-32.42-12-32.42a7.83,7.83,0,0,1,9.4-4.89s7.71,25.37,7.84,28.79S1008.44,456.16,1007.3,461.85Z" transform="translate(-31.44 -37.71)" opacity="0.1"/><path d="M1006.16,461.85c-.27,1.37-.52,3.62-.78,6.25-.53,5.31-1.1,12.18-2,16.62-.5,2.42-1.11,4.1-1.86,4.41l-3.58,1.41a16.8,16.8,0,0,0-4.06,2.42l-5.93.92s.92-1.86,1.54-3.34,1.51-3.6,2.42-5.82c2.08-5.06,4.35-10.85,4.49-12.37.07-.67.3-2.21.57-4.25.24-1.78.5-3.94.71-6.25.57-6.29.7-13.68-1.28-17.49-3.54-6.82-12-32.42-12-32.42a7.83,7.83,0,0,1,9.4-4.89s7.71,25.37,7.85,28.79S1007.3,456.16,1006.16,461.85Z" transform="translate(-31.44 -37.71)" fill="#575a89"/><path d="M945.64,470.22c0,.3-.06.88-.08,1.68l-15.45.37c0-1.75,0-3.51.06-5.27l15.21-.72A21.49,21.49,0,0,1,945.64,470.22Z" transform="translate(-31.44 -37.71)" fill="#fff"/><path d="M945.64,497.22H930.71s-.13-2.6-.28-6.68h15.14C945.61,494.38,945.64,497.22,945.64,497.22Z" transform="translate(-31.44 -37.71)" fill="#fff"/><path d="M1006.16,461.85c-.27,1.37-.52,3.62-.78,6.25h-8.45c.24-1.78.5-3.94.71-6.25Z" transform="translate(-31.44 -37.71)" fill="#fff"/><path d="M1003.34,484.72c-.5,2.42-1.11,4.1-1.86,4.41l-3.58,1.41h-8.45c.64-1.51,1.51-3.6,2.42-5.82Z" transform="translate(-31.44 -37.71)" fill="#fff"/><path d="M675.76,380.51s3.49,30.72,14.45,33.75,5.48-11.37,5.48-11.37l-9.28-11.71Z" transform="translate(-31.44 -37.71)" opacity="0.05"/><path d="M603,435.73s41.65,41.61,59.69,33.54S622.45,465.57,603,435.73Z" transform="translate(-31.44 -37.71)" opacity="0.05"/><path d="M650.35,492.11s27.78,1.67,36.06-7.39S650.35,492.11,650.35,492.11Z" transform="translate(-31.44 -37.71)" opacity="0.05"/><path d="M630.42,527.48c-1.22-.87,50.33-2.49,64.28-13S663.8,551.39,630.42,527.48Z" transform="translate(-31.44 -37.71)" opacity="0.05"/><path d="M542.72,363.79s11,11.16,12,20.16S542.72,363.79,542.72,363.79Z" transform="translate(-31.44 -37.71)" opacity="0.05"/><path d="M570.63,373.48s-1,29.63,11.19,35.26S566.64,395.87,570.63,373.48Z" transform="translate(-31.44 -37.71)" opacity="0.05"/><path d="M729.73,453s21.77-9,25.26-3.15-3,6.84-3,6.84Z" transform="translate(-31.44 -37.71)" opacity="0.05"/><path d="M758,482c-9,5.63-15.75,5.14-15.1,10.12s1.45,3.05,7.53,1.77S758,482,758,482Z" transform="translate(-31.44 -37.71)" opacity="0.05"/><path d="M764.63,505.18s-10.83,9.34-14.22,9.84S764.63,505.18,764.63,505.18Z" transform="translate(-31.44 -37.71)" opacity="0.05"/><path d="M918.42,581.29c-1.42-1.41,46.84,0,58.3-3,0,0,5.81,8.47-5.32,10.47s-60.45,5-60.45,5S925.88,588.77,918.42,581.29Z" transform="translate(-31.44 -37.71)" opacity="0.1"/><path d="M905.51,641.08c-1.76,3-7.63,7.7-13,11.67-1.33-5.8-4.55-14.91-5.59-23.21l10.42-4.9C897,624.64,909,635.1,905.51,641.08Z" transform="translate(-31.44 -37.71)" opacity="0.1"/><path d="M854.26,488.67s32.3-5.34,42.25-16.4C896.51,472.27,892.75,491.22,854.26,488.67Z" transform="translate(-31.44 -37.71)" opacity="0.1"/><path d="M846.17,507.55s5,2,13.46,0S846.17,507.55,846.17,507.55Z" transform="translate(-31.44 -37.71)" opacity="0.1"/><path d="M917.25,505.18s-18.13,15.14-13.71,18.47S917.25,505.18,917.25,505.18Z" transform="translate(-31.44 -37.71)" opacity="0.1"/><path d="M917.25,477.15s-15.69-.31-11.74,7.57S917.25,477.15,917.25,477.15Z" transform="translate(-31.44 -37.71)" opacity="0.1"/><path d="M946.79,373.92a6.92,6.92,0,0,0,2.78-.92,19.81,19.81,0,0,1,12.67-1.29c6.09,1.42,11.16,5.66,17.1,7.63,3.42,1.14,8,1.05,9.69-2.14,1.49-2.83-.27-6.22-2-8.92-3-4.79-6.29-9.78-11.28-12.5a31.49,31.49,0,0,0-9.1-2.83c-6.34-1.23-12.84-2.17-19.25-1.33-5,.66-19.47,4-17.19,11.69,1.14,3.85,5.16,3.31,8.17,4.62C941.24,369.19,943.6,374,946.79,373.92Z" transform="translate(-31.44 -37.71)" opacity="0.1"/><path d="M946.79,371.65a7.25,7.25,0,0,0,2.78-.92,19.74,19.74,0,0,1,12.67-1.29c6.09,1.42,11.16,5.65,17.1,7.63,3.42,1.14,8,1.05,9.69-2.14,1.49-2.84-.27-6.22-2-8.92-3-4.79-6.29-9.78-11.28-12.5a31.18,31.18,0,0,0-9.1-2.83c-6.34-1.23-12.84-2.17-19.25-1.34-5,.66-19.47,4-17.19,11.7,1.14,3.85,5.16,3.3,8.17,4.62C941.24,366.91,943.6,371.7,946.79,371.65Z" transform="translate(-31.44 -37.71)" fill="#663d5c"/><path d="M984.37,360.21l-58.86-6s.21-.7.57-2c12.35-3.27,42.88-9.63,57.5,2.75Z" transform="translate(-31.44 -37.71)" opacity="0.1"/><path d="M920.71,355s53.88-17.69,67.71,7.07C988.42,362,959.78,366.21,920.71,355Z" transform="translate(-31.44 -37.71)" fill="#575a89"/><path d="M946.17,656.21a2,2,0,0,1-2.68-.9,5.69,5.69,0,0,1-.41-3.12l.27-4.74c.41-7.22.83-14.54,3.07-21.42a52.43,52.43,0,0,1,12-19.42" transform="translate(-31.44 -37.71)" opacity="0.1"/><path d="M938,513s27-7,33.37-4.56,4.22,6.23,0,6.61S938,513,938,513Z" transform="translate(-31.44 -37.71)" opacity="0.1"/><path d="M930.11,531.71c6,4.17,54.26,4.17,54.26,4.17Z" transform="translate(-31.44 -37.71)" opacity="0.1"/><path d="M708.18,544.21s2,4.93-10.87,9.85S708.18,544.21,708.18,544.21Z" transform="translate(-31.44 -37.71)" opacity="0.1"/><path d="M698.52,581.73s-16.84-.38-11.07,7.58S698.52,581.73,698.52,581.73Z" transform="translate(-31.44 -37.71)" opacity="0.1"/><path d="M595.07,548.48s26.52,14.3,37.51,15.82S612.5,570.57,595.07,548.48Z" transform="translate(-31.44 -37.71)" opacity="0.1"/><path d="M617.8,665.47s1.32,6.82,12.6,10.23,19.91.76,20,0S617.8,665.47,617.8,665.47Z" transform="translate(-31.44 -37.71)" opacity="0.1"/><path d="M647.93,815.4s13.93,7,17.05,0" transform="translate(-31.44 -37.71)" opacity="0.1"/><path d="M743.71,677.4s-2.3,7.42-6.54,7.68" transform="translate(-31.44 -37.71)" opacity="0.1"/><path d="M989,372.65c-1.68,3.2-6.27,3.28-9.69,2.14-5.94-2-11-6.2-17.1-7.63a19.81,19.81,0,0,0-12.67,1.29,6.87,6.87,0,0,1-2.78.92c-3.19.05-5.55-4.73-8.4-6-3-1.32-7-.78-8.17-4.63a3.69,3.69,0,0,1-.11-.45,5.22,5.22,0,0,0,.11,2.73c1.14,3.85,5.16,3.3,8.17,4.62,2.85,1.25,5.21,6,8.4,6a7.19,7.19,0,0,0,2.78-.92,19.74,19.74,0,0,1,12.67-1.29c6.09,1.42,11.16,5.65,17.1,7.63,3.42,1.13,8,1.05,9.69-2.14a5.33,5.33,0,0,0,.45-3.53A4.58,4.58,0,0,1,989,372.65Z" transform="translate(-31.44 -37.71)" opacity="0.1"/><path d="M985.11,696a6.91,6.91,0,0,1-.92,3l-25.78-3c.36-1.5.72-2.64.72-2.64s21.32,4.84,25,2.56l.06,0Z" transform="translate(-31.44 -37.71)" opacity="0.1"/><path d="M958.19,690.86c-.1.29-.51,3.89-.51,3.89l28.64,3.31v-3Z" transform="translate(-31.44 -37.71)" fill="#575a89"/><ellipse cx="123.63" cy="680.6" rx="30.65" ry="4.21" fill="#6c63ff" opacity="0.1"/><ellipse cx="241.04" cy="692.51" rx="30.65" ry="4.21" fill="#6c63ff" opacity="0.1"/><ellipse cx="379.33" cy="676.39" rx="30.65" ry="4.21" fill="#6c63ff" opacity="0.1"/><ellipse cx="194.05" cy="726.4" rx="21.79" ry="2.99" fill="#6c63ff" opacity="0.1"/><ellipse cx="315.9" cy="723.41" rx="21.79" ry="2.99" fill="#6c63ff" opacity="0.1"/><path d="M273.13,729.27s-43-140.92,6.73-197.36c37.19-42.22,79.4-37.17,98.31-31.95a34.91,34.91,0,0,1,22.55,18.74c6.61,14.26,5.41,37.41-41.24,64.42-78.12,45.23-83,107.27-83,107.27Z" transform="translate(-31.44 -37.71)" fill="#6c63ff"/><path d="M371.44,520s-126.71,39.62-98.31,209.32" transform="translate(-31.44 -37.71)" fill="none" stroke="#565987" stroke-miterlimit="10"/><path d="M297.43,534.15s17.45,11.76,11.9,29.43" transform="translate(-31.44 -37.71)" fill="none" stroke="#565987" stroke-miterlimit="10"/><path d="M358.73,544.62s-10.67-10.85-23.65-4.87" transform="translate(-31.44 -37.71)" fill="none" stroke="#565987" stroke-miterlimit="10"/><path d="M308.64,599.19s-18.73-9.51-23.57,2.4" transform="translate(-31.44 -37.71)" fill="none" stroke="#565987" stroke-miterlimit="10"/><path d="M262.29,619s14.07-1.12,14.32,5.61" transform="translate(-31.44 -37.71)" fill="none" stroke="#565987" stroke-miterlimit="10"/><path d="M271.4,730.39S321.74,628,335.57,630.21c6.57,1.07,9.6,7.53,11,14a41.18,41.18,0,0,1-2.74,24.93C336.65,685.55,317.46,716.68,271.4,730.39Z" transform="translate(-31.44 -37.71)" fill="#6c63ff"/><path d="M335.2,649.65s-52.85,76.63-63.06,80" transform="translate(-31.44 -37.71)" fill="none" stroke="#565987" stroke-miterlimit="10"/><line x1="308.62" y1="623.91" x2="296.28" y2="623.91" fill="none" stroke="#565987" stroke-miterlimit="10"/><line x1="293.84" y1="651.94" x2="274.51" y2="652.77" fill="none" stroke="#565987" stroke-miterlimit="10"/><line x1="282.08" y1="629.51" x2="284.18" y2="639.58" fill="none" stroke="#565987" stroke-miterlimit="10"/><line x1="261.52" y1="660.16" x2="261.89" y2="669.32" fill="none" stroke="#565987" stroke-miterlimit="10"/><path d="M272.89,730.39S222.55,628,208.72,630.21c-6.57,1.07-9.6,7.53-11,14a41.25,41.25,0,0,0,2.74,24.93C207.64,685.55,226.83,716.68,272.89,730.39Z" transform="translate(-31.44 -37.71)" fill="#6c63ff"/><path d="M209.09,649.65s52.84,76.63,63,80" transform="translate(-31.44 -37.71)" fill="none" stroke="#565987" stroke-miterlimit="10"/><line x1="172.79" y1="623.91" x2="185.13" y2="623.91" fill="none" stroke="#565987" stroke-miterlimit="10"/><line x1="187.57" y1="651.94" x2="206.9" y2="652.77" fill="none" stroke="#565987" stroke-miterlimit="10"/><line x1="199.33" y1="629.51" x2="197.23" y2="639.58" fill="none" stroke="#565987" stroke-miterlimit="10"/><line x1="219.89" y1="660.16" x2="219.52" y2="669.32" fill="none" stroke="#565987" stroke-miterlimit="10"/><path d="M359.33,754.31A8.73,8.73,0,0,0,362.2,750a3.85,3.85,0,0,0-2-4.4c-1.84-.7-3.81.57-5.3,1.86s-3.19,2.75-5.14,2.48a7.82,7.82,0,0,0,2.42-7.33,3.08,3.08,0,0,0-.67-1.49c-1-1.09-2.88-.62-4.1.24-3.89,2.73-5,8-5,12.76-.39-1.71-.06-3.5-.07-5.26s-.49-3.7-2-4.65a6,6,0,0,0-3-.71c-1.75-.06-3.69.11-4.89,1.39-1.48,1.59-1.1,4.25.19,6s3.26,2.85,5.06,4a11.26,11.26,0,0,1,3.62,3.45,5,5,0,0,1,.27.62h10.95A30.39,30.39,0,0,0,359.33,754.31Z" transform="translate(-31.44 -37.71)" fill="#6c63ff"/><path d="M167.5,713.06a8.79,8.79,0,0,0,2.86-4.32,3.85,3.85,0,0,0-2-4.41c-1.84-.7-3.8.57-5.29,1.86s-3.2,2.76-5.15,2.48a7.81,7.81,0,0,0,2.42-7.33,3.08,3.08,0,0,0-.67-1.49c-1-1.09-2.87-.62-4.1.24-3.88,2.73-5,8-5,12.76-.39-1.71-.06-3.5-.07-5.25s-.49-3.71-2-4.66a6,6,0,0,0-3-.71c-1.75-.06-3.69.12-4.89,1.39-1.48,1.59-1.09,4.26.2,6s3.25,2.85,5,4.06a11.23,11.23,0,0,1,3.62,3.44,3.87,3.87,0,0,1,.27.62h10.95A30.45,30.45,0,0,0,167.5,713.06Z" transform="translate(-31.44 -37.71)" fill="#6c63ff"/><path d="M231.43,754.31A8.73,8.73,0,0,0,234.3,750a3.85,3.85,0,0,0-2-4.4c-1.84-.7-3.81.57-5.3,1.86s-3.2,2.75-5.15,2.48a7.85,7.85,0,0,0,2.43-7.33,3.09,3.09,0,0,0-.68-1.49c-1-1.09-2.87-.62-4.09.24-3.89,2.73-5,8-5,12.76-.4-1.71-.07-3.5-.07-5.26s-.5-3.7-2-4.65a6,6,0,0,0-3-.71c-1.75-.06-3.7.11-4.89,1.39-1.48,1.59-1.1,4.25.19,6s3.25,2.85,5.06,4a11.26,11.26,0,0,1,3.62,3.45,3.84,3.84,0,0,1,.26.62h11A30.39,30.39,0,0,0,231.43,754.31Z" transform="translate(-31.44 -37.71)" fill="#6c63ff"/><path d="M412.76,670.93s4.1,5.37-1.9,13.48-10.95,15-8.95,20c0,0,9.06-15,16.43-15.26S420.86,680,412.76,670.93Z" transform="translate(-31.44 -37.71)" fill="#6c63ff"/><path d="M412.76,670.93a6.55,6.55,0,0,1,.83,1.68c7.2,8.45,11,16.34,4.12,16.54-6.44.18-14.17,11.69-16,14.6a4.64,4.64,0,0,0,.22.66s9.06-15,16.43-15.26S420.86,680,412.76,670.93Z" transform="translate(-31.44 -37.71)" opacity="0.1"/><path d="M420.39,677.77c0,1.89-.21,3.43-.47,3.43s-.48-1.54-.48-3.43.27-1,.53-1S420.39,675.88,420.39,677.77Z" transform="translate(-31.44 -37.71)" fill="#ffd037"/><path d="M423,680c-1.66.9-3.11,1.45-3.23,1.22s1.12-1.15,2.78-2,1-.25,1.13,0S424.67,679.13,423,680Z" transform="translate(-31.44 -37.71)" fill="#ffd037"/><path d="M391.06,670.93s-4.1,5.37,1.9,13.48,11,15,9,20c0,0-9.06-15-16.43-15.26S383,680,391.06,670.93Z" transform="translate(-31.44 -37.71)" fill="#6c63ff"/><path d="M391.06,670.93a6.74,6.74,0,0,0-.84,1.68c-7.19,8.45-11,16.34-4.11,16.54,6.44.18,14.17,11.69,16,14.6a4.64,4.64,0,0,1-.22.66s-9.06-15-16.43-15.26S383,680,391.06,670.93Z" transform="translate(-31.44 -37.71)" opacity="0.1"/><path d="M383.43,677.77c0,1.89.21,3.43.47,3.43s.48-1.54.48-3.43-.27-1-.53-1S383.43,675.88,383.43,677.77Z" transform="translate(-31.44 -37.71)" fill="#ffd037"/><path d="M380.81,680c1.66.9,3.11,1.45,3.23,1.22s-1.12-1.15-2.78-2-1-.25-1.13,0S379.15,679.13,380.81,680Z" transform="translate(-31.44 -37.71)" fill="#ffd037"/><path d="M384.74,703.71s11.48-.35,14.94-2.82,17.66-5.4,18.52-1.45,17.26,19.65,4.29,19.76-30.12-2-33.57-4.12S384.74,703.71,384.74,703.71Z" transform="translate(-31.44 -37.71)" fill="#a8a8a8"/><path d="M422.72,717.82c-13,.11-30.12-2-33.57-4.12-2.63-1.6-3.68-7.35-4-10h-.38s.72,9.26,4.18,11.37,20.61,4.22,33.57,4.12c3.74,0,5-1.36,5-3.33C426.94,717.06,425.51,717.8,422.72,717.82Z" transform="translate(-31.44 -37.71)" opacity="0.2"/></svg>